<?xml version="1.0" encoding="UTF-8"?>
<svg version="1.1" xmlns="http://www.w3.org/2000/svg" width="600" height="601">
<path d="M0 0 C1.55809891 -0.00855011 1.55809891 -0.00855011 3.14767456 -0.01727295 C5.34111533 -0.02667004 7.53456987 -0.03323572 9.72802734 -0.03710938 C12.99734013 -0.04670665 16.26599336 -0.07773635 19.53515625 -0.109375 C34.21390454 -0.18329596 48.42590045 0.96132101 62.9296875 3.203125 C64.18507324 3.39664551 65.44045898 3.59016602 66.73388672 3.78955078 C69.60471137 4.27111723 72.45334669 4.80545023 75.3046875 5.390625 C76.32175781 5.59856689 77.33882813 5.80650879 78.38671875 6.02075195 C119.63512656 14.84031283 159.25357252 32.82472711 192.9296875 58.203125 C193.51202148 58.64124512 194.09435547 59.07936523 194.69433594 59.53076172 C202.14304867 65.17317178 209.20528649 71.10181454 216.015625 77.5 C218.25139216 79.57392878 220.512363 81.57281547 222.82421875 83.55859375 C226.86932884 87.08468333 230.58683017 90.84034706 234.2421875 94.765625 C234.89026367 95.46034912 235.53833984 96.15507324 236.20605469 96.87084961 C241.68719712 102.81552075 246.7711737 108.9873579 251.61914062 115.45556641 C252.95611514 117.23836513 254.30978893 119.00766357 255.6640625 120.77734375 C290.821406 167.19199533 313.87534178 227.70250947 314.1328125 286.2734375 C314.13851257 287.3121701 314.14421265 288.35090271 314.15008545 289.42111206 C314.15948254 291.61455283 314.16604822 293.80800737 314.16992188 296.00146484 C314.17951915 299.27077763 314.21054885 302.53943086 314.2421875 305.80859375 C314.3367882 324.55891214 312.66591678 343.05397635 308.6171875 361.390625 C308.40553955 362.37144043 308.1938916 363.35225586 307.97583008 364.36279297 C305.74380562 374.4454702 303.0672857 384.36542798 299.9296875 394.203125 C299.65850098 395.05487305 299.38731445 395.90662109 299.10791016 396.78417969 C289.51404244 426.2467094 274.63299039 454.52465111 255.9296875 479.203125 C255.49833496 479.77724121 255.06698242 480.35135742 254.62255859 480.94287109 C248.30246264 489.31659443 241.51248268 497.09523892 234.3125 504.71875 C232.2611863 506.92072516 230.2882549 509.19018191 228.3046875 511.453125 C223.83206158 516.42982146 218.98336518 520.82659737 213.9296875 525.203125 C212.89132621 526.12692922 211.85359509 527.05144212 210.81640625 527.9765625 C161.51352548 571.55917953 93.40250809 600.0879622 27.234375 600.40625 C26.25179718 600.41326431 25.26921936 600.42027863 24.25686646 600.42750549 C21.1060929 600.44490011 17.9555073 600.4513571 14.8046875 600.453125 C13.72799805 600.45379974 12.65130859 600.45447449 11.54199219 600.45516968 C-4.20447783 600.43947601 -19.5446379 600.06893023 -35.0703125 597.203125 C-36.0411377 597.03151855 -37.01196289 596.85991211 -38.01220703 596.68310547 C-101.14508381 585.30148969 -166.8362159 553.28712496 -208.48828125 503.09375 C-210.33473582 500.88712281 -212.29601262 498.8077913 -214.2578125 496.703125 C-257.81212869 448.334131 -285.9871747 379.25352917 -286.2734375 314.1328125 C-286.27913757 313.0940799 -286.28483765 312.05534729 -286.29071045 310.98513794 C-286.30010754 308.79169717 -286.30667322 306.59824263 -286.31054688 304.40478516 C-286.32014415 301.13547237 -286.35117385 297.86681914 -286.3828125 294.59765625 C-286.45673346 279.91890796 -285.31211649 265.70691205 -283.0703125 251.203125 C-282.87679199 249.94773926 -282.68327148 248.69235352 -282.48388672 247.39892578 C-282.00232027 244.52810113 -281.46798727 241.67946581 -280.8828125 238.828125 C-280.67487061 237.81105469 -280.46692871 236.79398438 -280.25268555 235.74609375 C-271.43312467 194.49768594 -253.44871039 154.87923998 -228.0703125 121.203125 C-227.63219238 120.62079102 -227.19407227 120.03845703 -226.74267578 119.43847656 C-221.10026572 111.98976383 -215.17162296 104.92752601 -208.7734375 98.1171875 C-206.69950872 95.88142034 -204.70062203 93.6204495 -202.71484375 91.30859375 C-199.18875417 87.26348366 -195.43309044 83.54598233 -191.5078125 79.890625 C-190.46572632 78.91851074 -190.46572632 78.91851074 -189.40258789 77.92675781 C-183.45791675 72.44561538 -177.2860796 67.3616388 -170.81787109 62.51367188 C-169.03507237 61.17669736 -167.26577393 59.82302357 -165.49609375 58.46875 C-119.08144217 23.3114065 -58.57092803 0.25747072 0 0 Z " fill="#0866FF" transform="translate(286.0703125,-0.203125)"/>
<path d="M0 0 C0.76395081 -0.00100708 1.52790161 -0.00201416 2.31500244 -0.00305176 C12.95931289 0.00634963 23.46730149 0.40739943 34.0625 1.5 C35.13282471 1.60924805 36.20314941 1.71849609 37.3059082 1.83105469 C47.91964439 3.05841139 58.12234139 5.23758884 68.6875 7.25 C68.6875 34.97 68.6875 62.69 68.6875 91.25 C43.25 91 43.25 91 35.33422852 90.88964844 C15.07264267 90.72584928 -3.69072463 92.19115572 -19.0546875 106.80859375 C-38.55847786 127.89833246 -33.71731934 164.25241211 -34.3125 189.25 C-1.9725 189.25 30.3675 189.25 63.6875 189.25 C62.56237931 200.50120691 62.56237931 200.50120691 61.73535156 205.11328125 C61.45936127 206.66801147 61.45936127 206.66801147 61.17779541 208.25415039 C60.97990417 209.34590576 60.78201294 210.43766113 60.578125 211.5625 C60.2650943 213.31324829 60.2650943 213.31324829 59.94573975 215.09936523 C59.50371361 217.56721782 59.05985183 220.03474225 58.61425781 222.50195312 C57.94962265 226.18286185 57.29068764 229.86475278 56.6328125 233.546875 C56.19825932 235.9688115 55.76337293 238.39068825 55.328125 240.8125 C55.13833069 241.87186768 54.94853638 242.93123535 54.75299072 244.02270508 C52.50448613 256.45363447 50.07363091 268.84211927 47.6875 281.25 C20.6275 281.25 -6.4325 281.25 -34.3125 281.25 C-34.30726318 287.48511475 -34.30202637 293.72022949 -34.29663086 300.14428711 C-34.28010071 320.6879837 -34.26898027 341.23168055 -34.26068783 361.77538204 C-34.25552415 374.23754655 -34.24848009 386.69970476 -34.23706055 399.16186523 C-34.22711589 410.01961778 -34.2206471 420.87736577 -34.21841151 431.73512274 C-34.21710403 437.4880575 -34.21401583 443.24097924 -34.20676994 448.99390984 C-34.20001317 454.40200976 -34.19788233 459.81009122 -34.19939232 465.21819496 C-34.19911584 467.20928421 -34.19710869 469.20037404 -34.19329453 471.19145966 C-34.18836263 473.89739253 -34.18949984 476.60325453 -34.19224548 479.30918884 C-34.18787622 480.5071226 -34.18787622 480.5071226 -34.18341869 481.72925705 C-34.19837879 487.13587879 -34.19837879 487.13587879 -35.3125 488.25 C-42.49301892 489.29360404 -49.76431493 489.41828169 -57.0078125 489.453125 C-57.99039032 489.46013931 -58.97296814 489.46715363 -59.98532104 489.47438049 C-63.1360946 489.49177511 -66.2866802 489.4982321 -69.4375 489.5 C-70.51418945 489.50067474 -71.59087891 489.50134949 -72.70019531 489.50204468 C-97.37145823 489.47745614 -118.70466118 486.37663309 -143.3125 481.25 C-143.3125 415.25 -143.3125 349.25 -143.3125 281.25 C-163.4425 281.25 -183.5725 281.25 -204.3125 281.25 C-204.3125 250.89 -204.3125 220.53 -204.3125 189.25 C-184.1825 189.25 -164.0525 189.25 -143.3125 189.25 C-143.3908145 173.59184419 -143.3908145 173.59184419 -143.49267578 157.93383789 C-143.57576257 138.92429758 -143.34161075 119.42463867 -139.0625 100.8125 C-138.84489014 99.83063721 -138.62728027 98.84877441 -138.40307617 97.8371582 C-133.41819665 76.09926395 -125.03477451 56.23907528 -110.3125 39.25 C-109.63058594 38.4559375 -108.94867188 37.661875 -108.24609375 36.84375 C-87.34479927 14.31635861 -55.90508475 4.8224795 -26.3125 1.25 C-25.22424927 1.10860596 -25.22424927 1.10860596 -24.11401367 0.96435547 C-16.09749826 0.02636863 -8.0599961 0.00740949 0 0 Z " fill="#FEFEFF" transform="translate(370.3125,110.75)"/>
</svg>
